custom-analysis
version=1
nRows=11
nColumns=42
inDegrees=no

This file contains tibia displacement and acting force.

Units are S.I. units (seconds, meters, Newtons, ...)
Angles are in degrees.

endheader
time	APT	SIT	knee_angle	aACL_R_force	pACL_R_force	aPCL_R_force	pPCL_R_force	aMCL_R_force	mMCL_R_force	pMCL_R_force	aLCL_R_force	mLCL_R_force	pLCL_R_force	aACL_R_length	pACL_R_length	aPCL_R_length	pPCL_R_length	aMCL_R_length	mMCL_R_length	pMCL_R_length	aLCL_R_length	mLCL_R_length	pLCL_R_length	aACL_R_strain	pACL_R_strain	aPCL_R_strain	pPCL_R_strain	aMCL_R_strain	mMCL_R_strain	pMCL_R_strain	aLCL_R_strain	mLCL_R_strain	pLCL_R_strain	femur_lat_meniscii_force_r	femur_lat_meniscii_torque_r	femur_med_meniscii_force_r	femur_med_meniscii_torque_r	femur_lat_tibia_force_r	femur_lat_tibia_torque_r	femur_med_tibia_force_r	femur_med_tibia_torque_r
      0.00000000	      0.00000000	      0.00000000	     60.00037120	      0.00000000	      0.00000000	    865.74678818	    464.79604671	     23.33303858	      0.83921211	      0.00000000	      0.00000000	      0.00000000	      0.00000000	      0.02839623	      0.02163326	      0.03661187	      0.03349639	      0.06145990	      0.06046437	      0.05715317	      0.05252017	      0.04773620	      0.04339759	     -0.08415512	     -0.14690963	      0.17740851	      0.11328801	      0.05916042	      0.01121971	     -0.05886629	     -0.06175784	     -0.15239015	     -0.17089501	    143.36790513	     52.80123266	     83.09857834	     33.72565524	   6559.94194272	    238.80665892	      0.00000000	      0.00000000
      0.00007404	     -0.00000016	     -0.00000205	     60.00037120	      0.00000000	      0.00000000	    876.79439924	    492.68664280	     51.02336580	     28.85586407	      0.00000000	      0.00000000	      0.00000000	      0.00000000	      0.02839854	      0.02163579	      0.03661322	      0.03349772	      0.06146160	      0.06046608	      0.05715483	      0.05252190	      0.04773790	      0.04339922	     -0.08408072	     -0.14681010	      0.17745196	      0.11333215	      0.05918964	      0.01124844	     -0.05883896	     -0.06172686	     -0.15235991	     -0.17086401	     18.43511429	      7.46672410	     15.25746692	      6.15404570	   3137.25181025	    113.28666243	      0.00000000	      0.00000000
      0.00016452	     -0.00000044	     -0.00000710	     60.00037120	      0.00000000	      0.00000000	    879.08482304	    497.39859066	     58.58629283	     36.32498689	      0.00000000	      0.00000000	      0.00000000	      0.00000000	      0.02840463	      0.02164244	      0.03661626	      0.03350069	      0.06146566	      0.06047019	      0.05715875	      0.05252601	      0.04774192	      0.04340301	     -0.08388425	     -0.14654760	      0.17754966	      0.11343095	      0.05925961	      0.01131705	     -0.05877434	     -0.06165357	     -0.15228866	     -0.17079161	     33.04024274	     12.49709800	      7.99037715	      3.20051777	   1854.99345549	     66.20383752	      0.00000000	      0.00000000
      0.00028601	     -0.00000059	     -0.00001474	     60.00037120	      0.00000000	      0.00000000	    877.25201159	    491.13383281	     57.26245233	     34.67030709	      0.00000000	      0.00000000	      0.00000000	      0.00000000	      0.02841489	      0.02165364	      0.03662009	      0.03350440	      0.06147149	      0.06047604	      0.05716425	      0.05253176	      0.04774751	      0.04340819	     -0.08355321	     -0.14610609	      0.17767294	      0.11355426	      0.05936007	      0.01141502	     -0.05868379	     -0.06155071	     -0.15218940	     -0.17069250	     31.94865389	     12.28093306	     11.27650293	      4.52590706	   1438.16741154	     50.60787205	      0.00000000	      0.00000000
      0.00044182	     -0.00000025	     -0.00002428	     60.00037120	      0.00000000	      0.00000000	    873.55179907	    480.09377151	     52.42852939	     29.36942793	      0.00000000	      0.00000000	      0.00000000	      0.00000000	      0.02842967	      0.02166972	      0.03662347	      0.03350757	      0.06147820	      0.06048272	      0.05717031	      0.05253815	      0.04775362	      0.04341369	     -0.08307663	     -0.14547185	      0.17778154	      0.11365972	      0.05947571	      0.01152665	     -0.05858404	     -0.06143668	     -0.15208088	     -0.17058759	     33.61627140	     13.52151820	     18.06686954	      7.25760929	   1341.74438287	     46.63459185	      0.00000000	      0.00000000
      0.00068062	      0.00000135	     -0.00003774	     60.00037120	      0.00000000	      0.00000000	    868.10508143	    464.79619885	     45.57821848	     21.85360089	      0.00000000	      0.00000000	      0.00000000	      0.00000000	      0.02845464	      0.02169684	      0.03662529	      0.03350898	      0.06148649	      0.06049080	      0.05717715	      0.05254553	      0.04776049	      0.04341944	     -0.08227121	     -0.14440246	      0.17783993	      0.11370653	      0.05961859	      0.01166172	     -0.05847136	     -0.06130482	     -0.15195884	     -0.17047761	     48.34375928	     19.83975644	     29.25617564	     11.73427148	   1300.37981923	     44.65483414	      0.00000000	      0.00000000
      0.00124653	      0.00000916	     -0.00006501	     60.00037120	      0.00000000	      0.00000000	    857.06186406	    437.20537948	     33.63630112	      8.60341915	      0.00000000	      0.00000000	      0.00000000	      0.00000000	      0.02852180	      0.02176966	      0.03661723	      0.03349951	      0.06149857	      0.06050168	      0.05718402	      0.05255448	      0.04776794	      0.04342373	     -0.08010519	     -0.14153091	      0.17758100	      0.11339165	      0.05982683	      0.01184376	     -0.05835833	     -0.06114491	     -0.15182663	     -0.17039568	     91.09080090	     36.79974611	     52.36447973	     21.04861149	   1234.36474404	     41.79861312	      0.00000000	      0.00000000
      0.00160008	      0.00001596	     -0.00007940	     60.00037120	      0.00000000	      0.00000000	    851.46191086	    425.28413459	     28.92148353	      3.25092152	      0.00000000	      0.00000000	      0.00000000	      0.00000000	      0.02856741	      0.02181919	      0.03660594	      0.03348701	      0.06150205	      0.06050398	      0.05718321	      0.05255598	      0.04776837	      0.04342202	     -0.07863412	     -0.13957787	      0.17721787	      0.11297625	      0.05988671	      0.01188224	     -0.05837156	     -0.06111815	     -0.15181890	     -0.17042844	    112.58152538	     45.05415246	     62.96143527	     25.32903252	   1165.08868215	     39.26364849	      0.00000000	      0.00000000
      0.00195363	      0.00002352	     -0.00009228	     60.00037120	      0.00000000	      0.00000000	    845.97261015	    414.62621210	     24.21713636	     -1.99540224	      0.00000000	      0.00000000	      0.00000000	      0.00000000	      0.02861470	      0.02187070	      0.03659156	      0.03347118	      0.06150330	      0.06050379	      0.05717958	      0.05255569	      0.04776699	      0.04341846	     -0.07710901	     -0.13754641	      0.17675517	      0.11245014	      0.05990831	      0.01187904	     -0.05843137	     -0.06112325	     -0.15184352	     -0.17049639	    130.18271652	     51.81781336	     73.72809387	     29.67268277	   1157.51802917	     39.02336369	      0.00000000	      0.00000000
      0.00246518	      0.00003483	     -0.00010825	     60.00037120	      0.00000000	      0.00000000	    839.72761751	    404.81802952	     20.34772526	     -6.43651495	      0.00000000	      0.00000000	      0.00000000	      0.00000000	      0.02868408	      0.02194679	      0.03656687	      0.03344402	      0.06150165	      0.06049965	      0.05717003	      0.05255317	      0.04776288	      0.04341134	     -0.07487108	     -0.13454604	      0.17596137	      0.11154752	      0.05987985	      0.01180974	     -0.05858870	     -0.06116834	     -0.15191646	     -0.17063244	    147.26961957	     58.17680268	     85.42153411	     34.38034907	   1063.00955187	     35.78126337	      0.00000000	      0.00000000
      0.00278720	      0.00004159	     -0.00011738	     60.00037120	      0.00000000	      0.00000000	    835.62928535	    398.52663124	     16.83152086	    -10.24729017	      0.00000000	      0.00000000	      0.00000000	      0.00000000	      0.02872791	      0.02199525	      0.03655037	      0.03342574	      0.06149935	      0.06049559	      0.05716238	      0.05255148	      0.04776023	      0.04340693	     -0.07345756	     -0.13263514	      0.17543080	      0.11093992	      0.05984024	      0.01174190	     -0.05871465	     -0.06119852	     -0.15196348	     -0.17071655	    167.42638671	     65.30207136	     94.08917456	     37.85506417	   1105.95801737	     37.40943995	      0.00000000	      0.00000000
